<svg xmlns="http://www.w3.org/2000/svg" viewBox="0 0 128 128" role="img" aria-labelledby="title desc">
  <title id="title">Mente de Acero</title>
  <desc id="desc">Marca circular con casco de acero y monograma MA.</desc>
  <defs>
    <linearGradient id="steel" x1="20" y1="12" x2="108" y2="118" gradientUnits="userSpaceOnUse">
      <stop stop-color="#f4f7fb"/>
      <stop offset="0.4" stop-color="#9ba8b8"/>
      <stop offset="1" stop-color="#26313f"/>
    </linearGradient>
    <linearGradient id="gold" x1="28" y1="20" x2="102" y2="112" gradientUnits="userSpaceOnUse">
      <stop stop-color="#fff1a8"/>
      <stop offset="0.48" stop-color="#f5b82f"/>
      <stop offset="1" stop-color="#b87512"/>
    </linearGradient>
    <linearGradient id="navy" x1="12" y1="10" x2="118" y2="124" gradientUnits="userSpaceOnUse">
      <stop stop-color="#0b1a35"/>
      <stop offset="0.55" stop-color="#10294a"/>
      <stop offset="1" stop-color="#07101f"/>
    </linearGradient>
    <filter id="shadow" x="-20%" y="-20%" width="140%" height="140%">
      <feDropShadow dx="0" dy="10" stdDeviation="8" flood-color="#020713" flood-opacity="0.45"/>
    </filter>
  </defs>
  <circle cx="64" cy="64" r="59" fill="url(#navy)"/>
  <circle cx="64" cy="64" r="55" fill="none" stroke="rgba(255,255,255,.16)" stroke-width="2"/>
  <circle cx="64" cy="64" r="47" fill="rgba(255,255,255,.04)" stroke="rgba(245,184,47,.34)" stroke-width="1.5"/>
  <g filter="url(#shadow)">
    <path d="M28 62c5-24 23-39 46-39 16 0 28 7 35 18-16-5-31-5-45 1-13 6-25 13-36 20Z" fill="url(#steel)"/>
    <path d="M33 68c10-13 24-21 43-25 11-2 22-2 33 1-5 10-13 18-24 24-15 8-32 8-52 0Z" fill="#19263a"/>
    <path d="M29 68c17 9 34 11 50 5 7-3 15-7 23-13-8 17-22 28-40 31-14 2-26-2-37-11 0-4 1-8 4-12Z" fill="#0f9ab0"/>
    <path d="M30 78c15 9 30 12 46 7-8 10-19 16-33 17-7-5-12-13-13-24Z" fill="url(#gold)"/>
    <path d="M75 45c9-3 20-3 33 0-3 5-7 9-13 12-8-3-15-6-20-12Z" fill="#f5b82f"/>
  </g>
  <text x="64" y="84" text-anchor="middle" font-family="Arial Black, Impact, sans-serif" font-size="31" font-weight="900" fill="#f9fbff">MA</text>
  <path d="M26 105c20 12 51 12 73 0" fill="none" stroke="#f5b82f" stroke-width="3" stroke-linecap="round"/>
</svg>
