<svg xmlns="http://www.w3.org/2000/svg" viewBox="0 0 520 620" role="img" aria-labelledby="title desc">
  <title id="title">Emblema Mente de Acero</title>
  <desc id="desc">Perfil humano con casco y aguila estilizada, sin fondo.</desc>
  <defs>
    <linearGradient id="steel" x1="176" y1="56" x2="362" y2="302" gradientUnits="userSpaceOnUse">
      <stop offset="0" stop-color="#f5f7fa"/>
      <stop offset=".34" stop-color="#9aa5b1"/>
      <stop offset=".68" stop-color="#3f4d5d"/>
      <stop offset="1" stop-color="#dfe6ec"/>
    </linearGradient>
    <linearGradient id="blueWing" x1="66" y1="192" x2="296" y2="454" gradientUnits="userSpaceOnUse">
      <stop offset="0" stop-color="#0b71bd"/>
      <stop offset=".52" stop-color="#0d4f96"/>
      <stop offset="1" stop-color="#062a54"/>
    </linearGradient>
    <linearGradient id="goldWing" x1="22" y1="146" x2="248" y2="348" gradientUnits="userSpaceOnUse">
      <stop offset="0" stop-color="#fff5a8"/>
      <stop offset=".42" stop-color="#ffd531"/>
      <stop offset="1" stop-color="#d79314"/>
    </linearGradient>
    <linearGradient id="faceSteel" x1="268" y1="128" x2="454" y2="422" gradientUnits="userSpaceOnUse">
      <stop offset="0" stop-color="#eef4f7"/>
      <stop offset=".42" stop-color="#9da7b1"/>
      <stop offset="1" stop-color="#3b4753"/>
    </linearGradient>
    <filter id="softShadow" x="-20%" y="-20%" width="140%" height="140%">
      <feDropShadow dx="0" dy="18" stdDeviation="18" flood-color="#020914" flood-opacity=".38"/>
    </filter>
  </defs>

  <g filter="url(#softShadow)">
    <path fill="#071225" opacity=".72" d="M289 55c69 13 122 54 153 112 35 66 25 142-25 203-40 49-95 72-159 70-78-3-145-47-176-113-34-72-18-155 42-213 43-42 103-70 165-59Z"/>

    <path fill="url(#steel)" d="M247 54c54-14 118-5 161 32 17 15 24 43 13 65-57-19-120-23-177-8-48 13-85 36-115 71-2-62 45-139 118-160Z"/>
    <path fill="#455361" d="M226 92c51-23 116-24 168-1 18 8 29 21 33 39-72-17-142-9-205 24-23 12-43 26-61 43 4-44 25-84 65-105Z"/>
    <path fill="#cbd4dc" d="M248 67c45-9 94-3 132 18-43-4-87 0-132 13-32 10-61 25-87 44 18-35 48-63 87-75Z" opacity=".86"/>

    <path fill="url(#faceSteel)" d="M309 140c56 6 101 35 127 84 17 33 15 73-5 106l-23 37 40 45c8 9 1 23-12 22l-91-8c-50-4-94-36-117-81-18-36-20-75-7-113 14-42 44-78 88-92Z"/>
    <path fill="#172637" d="M343 187c34 12 57 39 65 74-33-18-71-24-111-18-31 5-59 18-81 38 2-32 15-59 40-77 23-17 53-25 87-17Z" opacity=".36"/>
    <path fill="#0a1422" d="M335 238c28-4 58 3 82 19l4 3-6 14c-26-10-53-13-80-9-26 4-51 14-73 30 7-29 35-52 73-57Z" opacity=".86"/>
    <path fill="#f2f5f7" d="M320 208c25-8 52-7 75 3 7 3 8 13 1 17-33-7-66-6-98 3 2-10 10-19 22-23Z" opacity=".68"/>
    <path fill="#071225" d="M333 272c20-4 39 2 55 14-30 2-55 12-74 29-6-16 3-36 19-43Z"/>
    <path fill="#d9e1e8" d="M352 284c10-1 18 2 25 8-12 1-23 5-34 10-1-8 3-16 9-18Z"/>
    <path fill="#0a1422" d="M425 331c-22 7-45 5-68-4 14 16 30 27 49 31l19-27Z" opacity=".72"/>

    <path fill="url(#goldWing)" d="M215 129c-66 14-126 51-169 103-26 31-40 69-43 114 41-56 96-95 165-119 27-10 54-16 82-20-30-14-50-34-35-78Z"/>
    <path fill="#ffffff" d="M205 153c-63 18-113 49-151 94 45-24 94-39 148-45 20-2 40-3 60-2-25-12-45-27-57-47Z" opacity=".92"/>
    <path fill="url(#blueWing)" d="M251 212c-79 17-146 54-201 111-24 25-39 58-45 98 63-64 138-105 225-125 36-8 72-12 109-12-32-17-61-40-88-72Z"/>
    <path fill="url(#goldWing)" d="M262 291c-65 17-120 49-164 96-27 29-43 63-47 102 54-50 116-84 185-102 39-10 78-14 119-12-35-21-66-49-93-84Z"/>
    <path fill="#f6f7f8" d="M234 286c-57 16-106 44-146 84 48-24 98-38 151-43 21-2 42-2 63-1-23-11-45-24-68-40Z" opacity=".78"/>
    <path fill="#0b60a8" d="M223 377c-55 16-101 44-138 84 42-20 86-32 132-37 38-5 77-3 116 5-39-13-75-30-110-52Z" opacity=".84"/>
    <path fill="#f4d22c" d="M91 522c39-33 84-55 135-66 31-7 63-8 96-3-40 24-85 42-134 52-31 7-63 12-97 17Z"/>
    <path fill="#d52929" d="M172 480c28-12 58-18 91-18 19 0 37 2 56 6-42 32-88 55-139 70-18-14-21-35-8-58Z"/>
    <path fill="#f5d039" d="M196 515c32-9 62-23 91-43-24 30-55 51-92 65-6-6-6-14 1-22Z"/>

    <path fill="#071225" d="M280 248c-26 8-49 23-70 45-8 8-19-3-13-12 18-28 43-46 75-55 12-3 20 17 8 22Z"/>
    <path fill="#f7d12c" d="M266 247c-20 8-36 20-49 37 19-9 38-14 59-15 15-1 28-6 40-15-17-9-34-11-50-7Z"/>
    <path fill="#0a1422" d="M282 256c-13 8-27 13-42 17 19 2 36 7 52 15 11-7 19-16 24-28-12 2-23 1-34-4Z"/>

    <g opacity=".9">
      <circle cx="96" cy="405" r="50" fill="#f4f8fb"/>
      <circle cx="96" cy="405" r="43" fill="none" stroke="#9ca9a7" stroke-width="6"/>
      <path fill="#0f6c38" d="M72 415c13 24 34 34 62 29-17 12-37 15-59 8-11-4-20-11-27-20 9 0 17-5 24-17Z"/>
      <path fill="#c92525" d="M88 382h16l5 24-13 17-13-17 5-24Z"/>
      <path fill="#caa23a" d="M58 391h78l-15 22H73l-15-22Z"/>
      <path fill="#283b4a" d="M96 365l18 18H78l18-18Z"/>
      <path fill="#4d6070" d="M91 382h10v31H91z"/>
    </g>
  </g>
</svg>
